<svg class="bi bi-arrow-bar-right" width="1em" height="1em" viewBox="0 0 16 16" fill="currentColor" xmlns="http://www.w3.org/2000/svg">
  <path transform="rotate(-180 7.82822608947754,7.999868392944335) " stroke="null" id="svg_1" clip-rule="evenodd" d="m5.97423,4.646a0.5,0.5 0 0 1 0.708,0l3,3a0.5,0.5 0 0 1 0,0.708l-3,3a0.5,0.5 0 0 1 -0.708,-0.708l2.647,-2.646l-2.647,-2.646a0.5,0.5 0 0 1 0,-0.708z" fill-rule="evenodd"/>
  <path id="svg_2" clip-rule="evenodd" d="m6,8a0.5,0.5 0 0 1 0.5,-0.5l6.5,0a0.5,0.5 0 0 1 0,1l-6.5,0a0.5,0.5 0 0 1 -0.5,-0.5zm-2.5,6a0.5,0.5 0 0 1 -0.5,-0.5l0,-11a0.5,0.5 0 0 1 1,0l0,11a0.5,0.5 0 0 1 -0.5,0.5z" fill-rule="evenodd"/>
</svg>