<svg class="bi bi-blockquote-right" width="1em" height="1em" viewBox="0 -1.3 16 16" fill="currentColor" xmlns="http://www.w3.org/2000/svg">
  <path fill-rule="evenodd" d="m2.48737,4.20025a0.5,0.5 0 0 1 0.5,-0.5l3,0a0.5,0.5 0 0 1 0,1l-3,0a0.5,0.5 0 0 1 -0.5,-0.5z" clip-rule="evenodd" id="svg_1"/>
  <path id="svg_2" clip-rule="evenodd" d="m11,1.625a0.5,0.5 0 0 1 0.5,0.5l0,2a0.5,0.5 0 0 1 -0.5,0.5l-2,0a0.5,0.5 0 0 1 0,-1l1.5,0l0,-1.5a0.5,0.5 0 0 1 0.5,-0.5z" fill-rule="evenodd"/>
  <path id="svg_3" clip-rule="evenodd" d="m10.5,4.125a0.5,0.5 0 0 1 0.5,-0.5l2,0a0.5,0.5 0 0 1 0,1l-1.5,0l0,1.5a0.5,0.5 0 0 1 -1,0l0,-2z" fill-rule="evenodd"/>
  <path fill-rule="evenodd" d="m2.5,12.13353a0.5,0.5 0 0 1 0.5,-0.5l10,0a0.5,0.5 0 0 1 0,1l-10,0a0.5,0.5 0 0 1 -0.5,-0.5zm0,-4a0.5,0.5 0 0 1 0.5,-0.5l10,0a0.5,0.5 0 0 1 0,1l-10,0a0.5,0.5 0 0 1 -0.5,-0.5z" clip-rule="evenodd" id="svg_1" fill="black"/>
</svg>