<svg class="bi bi-files" width="1em" height="1em" viewBox="-2 -2 20 20" fill="currentColor" xmlns="http://www.w3.org/2000/svg">
  <path stroke="null" id="svg_1" clip-rule="evenodd" d="m3,2.937495l8,0a2,1.678573 0 0 1 2,1.678573l0,8.392865a2,1.678573 0 0 1 -2,1.678573l-8,0a2,1.678573 0 0 1 -2,-1.678573l0,-8.392865a2,1.678573 0 0 1 2,-1.678573zm0,0.839287a1,0.839287 0 0 0 -1,0.839287l0,8.392865a1,0.839287 0 0 0 1,0.839287l8,0a1,0.839287 0 0 0 1,-0.839287l0,-8.392865a1,0.839287 0 0 0 -1,-0.839287l-8,0z" fill-rule="evenodd"/>
  <path stroke="null" id="svg_2" d="m5.333332,1.282546l7.583335,0a1.895834,1.709637 0 0 1 1.895834,1.709637l0,8.548184a1.895834,1.709637 0 0 1 -1.895834,1.709637l0,-0.854818a0.947917,0.854818 0 0 0 0.947917,-0.854818l0,-8.548184a0.947917,0.854818 0 0 0 -0.947917,-0.854818l-7.583335,0a0.947917,0.854818 0 0 0 -0.947917,0.854818l-0.947917,0a1.895834,1.709637 0 0 1 1.895834,-1.709637z"/>
</svg>