<svg class="bi bi-code" width="1em" height="1em" viewBox="0 0 16 16" fill="currentColor" xmlns="http://www.w3.org/2000/svg">
  <path transform="rotate(-70 8.173920631408691,8.037100791931152) " fill-rule="evenodd" d="m3.78972,8.0371a0.31316,0.34566 0 0 1 0.31316,-0.34566l8.14209,0a0.31316,0.34566 0 0 1 0,0.69132l-8.14209,0a0.31316,0.34566 0 0 1 -0.31316,-0.34566z" clip-rule="evenodd" id="svg_1" fill="black"/>
  <path fill-rule="evenodd" d="m5.854,4.146a0.5,0.5 0 0 1 0,0.708l-3.147,3.146l3.147,3.146a0.5,0.5 0 0 1 -0.708,0.708l-3.5,-3.5a0.5,0.5 0 0 1 0,-0.708l3.5,-3.5a0.5,0.5 0 0 1 0.708,0zm4.292,0a0.5,0.5 0 0 0 0,0.708l3.147,3.146l-3.147,3.146a0.5,0.5 0 0 0 0.708,0.708l3.5,-3.5a0.5,0.5 0 0 0 0,-0.708l-3.5,-3.5a0.5,0.5 0 0 0 -0.708,0z" clip-rule="evenodd" id="svg_1" fill="black"/>
</svg>