<svg width="15" height="15" xmlns="http://www.w3.org/2000/svg" class="icon">

    <g>
        <title>background</title>
        <rect fill="none" id="canvas_background" height="17" width="17" y="-1" x="-1"/>
    </g>
    <g>
        <title>Layer 1</title>
        <path stroke="null" id="svg_1" fill="#517285" d="m7.48557,7.49461m-7.42497,0a7.42497,7.49426 0 1 0 14.84993,0a7.42497,7.49426 0 1 0 -14.84993,0z"/>
        <path stroke="null" id="svg_2" fill="#FFFFFF" d="m12.59002,4.63312c0,-0.41177 -0.11471,-0.48375 -0.50888,-0.48375l-0.72482,0c-0.23019,0 -0.47346,0.05031 -0.47346,0.34559c0,0.3038 0.27215,0.34714 0.47346,0.34714l0.54583,0l0,3.93193l-0.54583,0c-0.23019,0 -0.47346,0.05031 -0.47346,0.34675c0,0.30263 0.27215,0.34598 0.47346,0.34598l1.75028,0c0.2017,0 0.47385,-0.04334 0.47385,-0.34598c0,-0.29644 -0.24328,-0.34675 -0.47346,-0.34675l-0.51696,0l0,-4.14091z"/>
        <path stroke="null" id="svg_3" fill="#FFFFFF" d="m8.14844,9.00243c0,0.23235 0.04688,0.46396 0.32202,0.46396c0.27622,0 0.32346,-0.2316 0.32346,-0.46396l0,-1.70871l0.90042,-0.78043c0.11467,-0.09845 0.20194,-0.16144 0.32238,-0.16144l0.18859,0c0.15506,0 0.30939,0 0.38945,0.11957c0.06743,0.09807 0.06743,0.18256 0.06743,0.29497c0,0.21764 0.09448,0.41492 0.32959,0.41492c0.27586,0 0.31625,-0.23914 0.31625,-0.4715c0,-0.30893 -0.07428,-0.5409 -0.2892,-0.76647c-0.17489,-0.18294 -0.3826,-0.26706 -0.63177,-0.26706l-0.51782,0c-0.20194,0 -0.38945,0.13353 -0.57119,0.28818l-0.50412,0.43642l0,-0.27498c0,-0.22481 -0.06743,-0.44962 -0.32346,-0.44962c-0.29497,0 -0.32202,0.2531 -0.32202,0.49903l0,2.82711zm-0.33644,-2.86144c0,-0.23235 -0.04688,-0.46471 -0.32238,-0.46471c-0.27622,0 -0.3231,0.23235 -0.3231,0.46433l0,1.96181l-0.94802,0.62615a0.35591,0.3723 0 0 1 -0.20194,0.06299l-0.21456,0c-0.1547,0 -0.32238,-0.04225 -0.37647,-0.1407c-0.05409,-0.09807 -0.06022,-0.28177 -0.06743,-0.43604l-0.06707,-2.07422c-0.00721,-0.2184 -0.04039,-0.46396 -0.31625,-0.46396c-0.29569,0 -0.32959,0.26027 -0.32238,0.50582l0.06707,2.12363c0.01334,0.36588 0.00721,0.65444 0.29641,0.91471c0.21456,0.18935 0.41649,0.24593 0.59824,0.24593l0.47707,0c0.17453,0 0.34942,-0.08412 0.55821,-0.22481l0.52395,-0.35909l0,0.11241c0,0.23198 0.04688,0.4715 0.32238,0.4715c0.34329,0 0.31625,-0.34438 0.31625,-0.49903l0,-2.82673zm-6.6556,1.75775c0,0.41492 0.07428,0.61861 0.38332,0.88529l0.47707,0.41605c0.30218,0.25951 0.45688,0.26668 0.83335,0.26668l1.02194,0c0.21492,0 0.4439,-0.04904 0.4439,-0.33722c0,-0.2961 -0.25494,-0.33797 -0.44354,-0.33797l-1.13589,0c-0.12837,0 -0.25603,-0.07054 -0.37034,-0.16899l-0.38945,-0.34476c-0.10133,-0.08412 -0.17489,-0.15465 -0.17489,-0.2878l0,-0.83701c0,-0.13353 0.07356,-0.20369 0.17489,-0.28856l0.38945,-0.34476c0.11431,-0.09769 0.24196,-0.16785 0.37034,-0.16785l1.13589,0c0.18859,0 0.44354,-0.043 0.44354,-0.33835c0,-0.2878 -0.22898,-0.33722 -0.44354,-0.33722l-1.02266,0c-0.37647,0 -0.53116,0.00754 -0.83299,0.26706l-0.47743,0.41492c-0.30903,0.26781 -0.38332,0.4715 -0.38332,0.88642l0,0.65406l0.00036,0z"/>
    </g>
</svg>