<svg class="icon" width="1em" height="1em" viewBox="0 0 16 16" version="1.1" xmlns="http://www.w3.org/2000/svg">
    <path stroke="null" fill="#000000" d="m6.79446,3.01282m-0.61031,0a0.61031,0.61031 0 1 0 1.22062,0a0.61031,0.61031 0 1 0 -1.22062,0zm0.61031,3.66185m-0.61031,0a0.61031,0.61031 0 1 0 1.22062,0a0.61031,0.61031 0 1 0 -1.22062,0zm3.05154,-3.66185m-0.61031,0a0.61031,0.61031 0 1 0 1.22062,0a0.61031,0.61031 0 1 0 -1.22062,0zm0.61031,3.66185m-0.61031,0a0.61031,0.61031 0 1 0 1.22062,0a0.61031,0.61031 0 1 0 -1.22062,0zm-1.83092,3.66185m-0.61031,0a0.61031,0.61031 0 1 0 1.22062,0a0.61031,0.61031 0 1 0 -1.22062,0zm3.05154,0m-0.61031,0a0.61031,0.61031 0 1 0 1.22062,0a0.61031,0.61031 0 1 0 -1.22062,0z" id="svg_1"/></svg>