<?xml version="1.0" standalone="no"?><!DOCTYPE svg PUBLIC "-//W3C//DTD SVG 1.1//EN" "http://www.w3.org/Graphics/SVG/1.1/DTD/svg11.dtd"><svg class="icon" width="200px" height="200.00px" viewBox="0 0 1024 1024" version="1.1" xmlns="http://www.w3.org/2000/svg"><path d="M564.224 677.056c10.72-55.168 52.864-73.6 99.424-84.256 43.392-10.08 87.52-16.96 131.36-25.12a189.184 189.184 0 0 0 53.056-17.088 69.792 69.792 0 0 0 40.512-82.336c-2.784-14.752-0.96-20.928 16-24 53.248-9.6 54.4-9.28 55.36 44.8a112.608 112.608 0 0 1-66.368 107.488 523.04 523.04 0 0 1-147.456 39.232c-23.84 4.768-48 8.416-71.456 14.432-53.344 13.664-71.04 40.224-62.688 94.176 1.984 12.8-0.704 18.592-13.792 18.56a24.832 24.832 0 0 0-4.8 0.704c-41.248 8.48-41.248 8.48-54.4-29.344a57.216 57.216 0 0 0-63.776-45.056 1329.344 1329.344 0 0 0-170.272 27.392 576.928 576.928 0 0 1-115.84 12.8A121.6 121.6 0 0 1 64 609.12c-0.416-6.592 0-10.88 7.52-12.224 16-2.784 32-6.016 47.776-9.056 8.736-1.664 11.136 3.2 12.128 10.848 8.992 69.92 64 78.336 118.944 69.216 64.768-10.816 129.216-23.456 193.952-34.496a113.024 113.024 0 0 1 119.904 43.648z" fill="#01CA24" /><path d="M454.592 343.968C405.6 324.416 359.904 306.336 314.368 288c-7.872-3.2-14.624-8.672-12.32-18.496 2.624-11.104 11.168-12.288 21.024-11.04q53.184 6.592 106.4 12.8c7.776 0.928 13.408 2.72 14.688 12.48 2.496 19.008 6.496 37.92 10.432 60.224z m80 81.312c-2.016-11.552-10.144-8.544-16.8-6.08s-18.24-2.112-15.616 12.224c8.992 49.44 18.048 98.88 26.496 148.416 2.272 13.248 10.208 8.608 17.824 7.872 8.736-0.864 16.96-1.472 14.08-12.416-8.832-50.944-17.408-100.48-26.176-150.016z m29.856-169.6a36.96 36.96 0 0 0-38.4 38.176 40.32 40.32 0 0 0 37.664 44.8 35.488 35.488 0 0 0 36.704-36.672 40.992 40.992 0 0 0-36-46.304z"  /></svg>