<svg class="bi bi-file-minus" width="1em" height="1em" viewBox="0 0 16 16" fill="currentColor" xmlns="http://www.w3.org/2000/svg">
  <path stroke="null" id="svg_1" d="m9,1l-5,0a2,1.70536 0 0 0 -2,1.70536l0,8.52679a2,1.70536 0 0 0 2,1.70536l8,0a2,1.70536 0 0 0 2,-1.70536l0,-4.26339l-1,0l0,4.26339a1,0.85268 0 0 1 -1,0.85268l-8,0a1,0.85268 0 0 1 -1,-0.85268l0,-8.52679a1,0.85268 0 0 1 1,-0.85268l5,0l0,-0.85268z"/>
  <path id="svg_2" clip-rule="evenodd" d="m11,3.5a0.5,0.5 0 0 1 0.5,-0.5l4,0a0.5,0.5 0 0 1 0,1l-4,0a0.5,0.5 0 0 1 -0.5,-0.5z" fill-rule="evenodd"/>
</svg>