<svg class="bi bi-x-square-fill" width="1em" height="1em" viewBox="0 0 16 16" fill="currentColor" xmlns="http://www.w3.org/2000/svg">
  <path fill-rule="evenodd" d="m5.00628,1.52834zm1.20654,0a0.90491,0.90491 0 0 1 0.90491,-0.90491l1.80982,0a0.90491,0.90491 0 0 1 0.90491,0.90491l0,1.80982a0.90491,0.90491 0 0 1 -0.90491,0.90491l-1.80982,0a0.90491,0.90491 0 0 1 -0.90491,-0.90491l0,-1.80982z" clip-rule="evenodd" fill="black" id="svg_5"/>
  <path id="svg_1" fill-rule="evenodd" d="m5.00628,12.76527zm1.20654,0a0.90491,0.90491 0 0 1 0.90491,-0.90491l1.80982,0a0.90491,0.90491 0 0 1 0.90491,0.90491l0,1.80982a0.90491,0.90491 0 0 1 -0.90491,0.90491l-1.80982,0a0.90491,0.90491 0 0 1 -0.90491,-0.90491l0,-1.80982z" clip-rule="evenodd" fill="black"/>
  <path id="svg_2" fill-rule="evenodd" d="m5.00628,7.148zm1.20654,0a0.90491,0.90491 0 0 1 0.90491,-0.90491l1.80982,0a0.90491,0.90491 0 0 1 0.90491,0.90491l0,1.80982a0.90491,0.90491 0 0 1 -0.90491,0.90491l-1.80982,0a0.90491,0.90491 0 0 1 -0.90491,-0.90491l0,-1.80982z" clip-rule="evenodd" fill="black"/>
</svg>