<svg class="bi bi-file-plus" width="1em" height="1em" viewBox="0 -1 16 16" fill="currentColor" xmlns="http://www.w3.org/2000/svg">
  <path stroke="null" id="svg_1" d="m9,1l-5,0a2,1.70537 0 0 0 -2,1.70537l0,8.52684a2,1.70537 0 0 0 2,1.70537l8,0a2,1.70537 0 0 0 2,-1.70537l0,-4.26342l-1,0l0,4.26342a1,0.85268 0 0 1 -1,0.85268l-8,0a1,0.85268 0 0 1 -1,-0.85268l0,-8.52684a1,0.85268 0 0 1 1,-0.85268l5,0l0,-0.85268z"/>
  <path id="svg_2" clip-rule="evenodd" d="m13.5,1a0.5,0.5 0 0 1 0.5,0.5l0,2a0.5,0.5 0 0 1 -0.5,0.5l-2,0a0.5,0.5 0 0 1 0,-1l1.5,0l0,-1.5a0.5,0.5 0 0 1 0.5,-0.5z" fill-rule="evenodd"/>
  <path id="svg_3" clip-rule="evenodd" d="m13,3.5a0.5,0.5 0 0 1 0.5,-0.5l2,0a0.5,0.5 0 0 1 0,1l-1.5,0l0,1.5a0.5,0.5 0 0 1 -1,0l0,-2z" fill-rule="evenodd"/>
</svg>