<svg class="bi bi-x-square-fill" width="1em" height="1em" viewBox="0 0 16 16" fill="currentColor" xmlns="http://www.w3.org/2000/svg">
  <path d="m9.04224,2.09811l-5,0a2,1.67871 0 0 0 -2,1.67871l0,8.39356a2,1.67871 0 0 0 2,1.67871l8,0a2,1.67871 0 0 0 2,-1.67871l0,-4.19678l-1,0l0,4.19678a1,0.83936 0 0 1 -1,0.83936l-8,0a1,0.83936 0 0 1 -1,-0.83936l0,-8.39356a1,0.83936 0 0 1 1,-0.83936l5,0l0,-0.83936l0,0.00001z" id="svg_1" fill="black"/>
  <path d="m15.27144,4.12451a2.50902,2.50902 0 1 1 -5.01803,0a2.50902,2.50902 0 0 1 5.01803,0z" id="svg_2" fill="black"/>
</svg>