<svg width="12" height="14" xmlns="http://www.w3.org/2000/svg" class="icon">
    <g>
        <title>background</title>
        <rect fill="none" id="canvas_background" height="16" width="14" y="-1" x="-1"/>
    </g>

    <g>
        <title>Layer 1</title>
        <path stroke="null" id="svg_1" d="m9.679849,3.474951l-1.742717,0l0,-1.734519a0.232129,0.231007 0 1 0 -0.464717,0l0,1.734519l-1.742707,0a0.232354,0.231241 0 1 0 0,0.462473l1.742707,0l0,1.734051a0.232354,0.231241 0 1 0 0.464717,0l0,-1.734051l1.742717,0a0.232354,0.231241 0 1 0 0,-0.462473zm-0.465186,2.901812a0.232129,0.231007 0 0 0 -0.46379,0l-0.000459,0l0,3.919479c0,0.255053 -0.2082,0.462473 -0.464727,0.462473l-7.203202,0c-0.256293,0 -0.464717,-0.207419 -0.464717,-0.462473l0,-7.168382c0,-0.255053 0.208425,-0.462473 0.464717,-0.462473l3.909485,0a0.232354,0.231241 0 0 0 0,-0.462473l-3.909485,0c-0.512586,0 -0.929445,0.414839 -0.929445,0.924955l0,7.168382c0,0.510107 0.416849,0.924955 0.929445,0.924955l7.203202,0c0.512586,0 0.929454,-0.414848 0.929454,-0.924955l0,-3.919479l-0.000468,0l-0.00001,-0.00001z" fill="#000000"/>
    </g>
</svg>