<svg class="bi bi-x-square-fill" width="1em" height="1em" viewBox="0 0 16 16" fill="currentColor" xmlns="http://www.w3.org/2000/svg">
  <path fill="black" id="svg_1" clip-rule="evenodd" d="m3.44412,1a0.5,0.5 0 0 0 -0.5,0.5l0,13a0.5,0.5 0 0 0 1,0l0,-13a0.5,0.5 0 0 0 -0.5,-0.5z" fill-rule="evenodd"/>
  <path id="svg_1" clip-rule="evenodd" d="m14.14152,1.646a0.5,0.5 0 0 1 0,0.708l-5.647,5.646l5.647,5.646a0.5,0.5 0 0 1 -0.708,0.708l-6,-6a0.5,0.5 0 0 1 0,-0.708l6,-6a0.5,0.5 0 0 1 0.708,0z" fill-rule="evenodd" fill="black" transform="rotate(180 10.787524223327637,7.999732971191407) "/>
</svg>