<?xml version="1.0" standalone="no"?><!DOCTYPE svg PUBLIC "-//W3C//DTD SVG 1.1//EN" "http://www.w3.org/Graphics/SVG/1.1/DTD/svg11.dtd"><svg class="icon" width="16px" height="16.00px" viewBox="0 0 1024 1024" version="1.1" xmlns="http://www.w3.org/2000/svg"><path fill="#000000" d="M947.2 396.8c0-6.4-6.4-12.8-12.8-19.2-6.4 0-19.2 0-25.6 6.4-6.4 6.4-6.4 19.2-6.4 25.6 32 121.6 12.8 230.4-57.6 332.8-83.2 121.6-204.8 179.2-352 172.8-102.4-6.4-192-44.8-262.4-115.2C134.4 704 96 588.8 115.2 460.8 134.4 320 211.2 211.2 345.6 147.2c89.6-44.8 179.2-51.2 275.2-25.6h12.8c12.8 0 19.2-12.8 19.2-19.2 0-12.8-6.4-19.2-19.2-25.6C563.2 64 492.8 57.6 422.4 70.4 224 115.2 70.4 288 64 492.8c-6.4 134.4 38.4 249.6 140.8 339.2 108.8 102.4 243.2 140.8 390.4 115.2 211.2-32 364.8-217.6 364.8-435.2 0-38.4-6.4-76.8-12.8-115.2zM774.4 614.4h-25.6v-192h25.6v-25.6h-83.2v25.6h25.6v192h-25.6v25.6h83.2zM646.4 416c-12.8-12.8-38.4-19.2-64-19.2H505.6V640h32V550.4H576c25.6 0 51.2-6.4 70.4-19.2 19.2-12.8 25.6-32 25.6-57.6s-12.8-44.8-25.6-57.6z m-25.6 89.6c-12.8 12.8-32 12.8-51.2 12.8h-32V422.4H576c38.4 0 57.6 12.8 57.6 44.8 0 19.2-6.4 32-12.8 38.4zM339.2 396.8L243.2 640h38.4l25.6-64h108.8l25.6 64h38.4L377.6 396.8h-38.4z m-25.6 147.2l38.4-102.4c0-6.4 0-12.8 6.4-19.2 0 6.4 0 12.8 6.4 19.2l38.4 102.4H313.6z" /></svg>