<svg width="15" height="15" xmlns="http://www.w3.org/2000/svg">
	<style type="text/css">.st0{fill:#FFFFFF;}
		.st1{fill:#FF6C37;}</style>

	<title>hor-white-logo</title>
	<g>
		<title>background</title>
		<rect fill="none" id="canvas_background" height="17" width="17" y="-1" x="-1"/>
	</g>
	<g>
		<title>Layer 1</title>
		<g stroke="null" id="svg_1">
			<g stroke="null" id="Layer_2-2">
				<path stroke="null" id="svg_2" d="m8.43322,0.4979c-3.88219,-0.49978 -7.43417,2.24453 -7.92948,6.12672s2.24453,7.43417 6.12672,7.92948c3.88219,0.49978 7.43417,-2.24453 7.92948,-6.12672c0,-0.00446 0,-0.00892 0,-0.00892c0.49531,-3.88219 -2.24899,-7.42524 -6.12672,-7.92055z" class="st0"/>
				<path stroke="null" id="svg_3" d="m18.80803,5.15652l-1.20928,0c-0.05801,-0.00446 -0.11602,0.01785 -0.15618,0.05355c-0.04016,0.03124 -0.06247,0.08032 -0.06247,0.13387l0,4.28379c0,0.05801 0.0357,0.11602 0.08925,0.14279c0.11602,0.0714 0.26327,0.0714 0.37929,0c0.05801,-0.02677 0.09371,-0.08032 0.09371,-0.14279l0,-1.65997l0.82998,0c0.36144,0.01785 0.71843,-0.10263 0.99955,-0.33467c0.2722,-0.28112 0.41053,-0.66488 0.37929,-1.0531l0,-0.05801c0.0357,-0.37929 -0.09371,-0.75859 -0.35252,-1.03971c-0.28112,-0.23204 -0.63364,-0.34806 -0.99063,-0.32575zm0.82998,1.47255c0.01785,0.24543 -0.06247,0.49085 -0.21865,0.67827c-0.17403,0.16957 -0.40607,0.25435 -0.64703,0.24096l-0.82998,0l0,-1.90986l0.82998,0c0.23204,-0.01339 0.45962,0.0714 0.62472,0.22758c0.16064,0.18742 0.24096,0.43284 0.21865,0.67827l0.02231,0.08478z" class="st0"/>
				<path stroke="null" id="svg_4" d="m22.41356,5.47334c-0.2722,0.28112 -0.40607,0.66934 -0.37483,1.05756l0,1.92324c-0.0357,0.39268 0.10263,0.77644 0.37483,1.06202c0.59348,0.45069 1.41454,0.45069 2.00803,0c0.27666,-0.28112 0.41499,-0.66934 0.37929,-1.06202l0,-1.90986c0.04016,-0.39714 -0.09817,-0.78982 -0.37929,-1.07541c-0.59348,-0.44623 -1.41454,-0.44623 -2.00803,0.00446zm1.84739,2.98527c0.02231,0.24989 -0.05801,0.49531 -0.21865,0.68273c-0.1651,0.16064 -0.39268,0.24096 -0.62026,0.22758c-0.56225,0 -0.82998,-0.3079 -0.82998,-0.91477l0,-1.90986c0,-0.60687 0.27666,-0.91031 0.82998,-0.91031c0.23204,-0.01339 0.45515,0.06693 0.62026,0.22758c0.16064,0.18742 0.24096,0.43284 0.21865,0.67827l0,1.91878z" class="st0"/>
				<path stroke="null" id="svg_5" d="m28.72769,7.3118c-0.20973,-0.09371 -0.41499,-0.17849 -0.62026,-0.25435c-0.19188,-0.06247 -0.37483,-0.16064 -0.53101,-0.29005c-0.14279,-0.11602 -0.21865,-0.29897 -0.20527,-0.48193c-0.01785,-0.2008 0.07586,-0.39268 0.24096,-0.50424c0.18742,-0.11156 0.40607,-0.1651 0.62026,-0.15172c0.20527,-0.00446 0.41053,0.0357 0.59795,0.12048c0.09371,0.04462 0.18742,0.08478 0.28559,0.11602c0.0714,0 0.13387,-0.04016 0.1651,-0.10263c0.0357,-0.05801 0.06247,-0.12494 0.06693,-0.19188c0,-0.12941 -0.12494,-0.2365 -0.36591,-0.31682c-0.24543,-0.07586 -0.49978,-0.11602 -0.75859,-0.11156c-0.1651,0 -0.33021,0.01785 -0.49085,0.05801c-0.15618,0.04016 -0.3079,0.09817 -0.44623,0.18295c-0.14726,0.08925 -0.26327,0.21865 -0.33913,0.37483c-0.08925,0.18295 -0.13387,0.38376 -0.12941,0.58902c-0.00892,0.24989 0.06693,0.49978 0.21419,0.70058c0.13833,0.17849 0.32128,0.32128 0.53101,0.41499c0.20973,0.08925 0.41499,0.16957 0.62026,0.24543c0.19634,0.0714 0.37929,0.18742 0.52655,0.33467c0.14726,0.15618 0.22311,0.36144 0.21419,0.57117c0.01785,0.22311 -0.0714,0.44177 -0.2365,0.59348c-0.18742,0.14726 -0.41945,0.21419 -0.65596,0.2008c-0.16064,0.00446 -0.31682,-0.02231 -0.46408,-0.08032c-0.11156,-0.0357 -0.21419,-0.09817 -0.30344,-0.17849l-0.2008,-0.19188c-0.04016,-0.04016 -0.09371,-0.0714 -0.14726,-0.08032c-0.06247,0.00446 -0.12048,0.04016 -0.15172,0.09371c-0.04462,0.05801 -0.0714,0.12494 -0.07586,0.2008c0,0.15172 0.13387,0.31236 0.41499,0.46854c0.29005,0.16957 0.62472,0.25435 0.96385,0.24096c0.37037,0.01785 0.73181,-0.10263 1.0174,-0.33467c0.2722,-0.25881 0.41053,-0.62472 0.38376,-0.99509c0.02677,-0.52655 -0.26327,-1.0174 -0.74074,-1.24051l0,0z" class="st0"/>
				<path stroke="null" id="svg_6" d="m33.86378,5.15652l-2.60597,0c-0.05801,0 -0.10709,0.02677 -0.14279,0.0714c-0.0714,0.10263 -0.0714,0.24096 0,0.3436c0.03124,0.04462 0.08478,0.0714 0.14279,0.0714l1.03525,0l0,3.98482c0,0.05801 0.03124,0.11156 0.08032,0.14279c0.11602,0.0714 0.26327,0.0714 0.37929,0c0.05355,-0.02677 0.08478,-0.08032 0.08478,-0.14279l0,-3.98482l1.02186,0c0.05801,0.00446 0.11156,-0.02677 0.14279,-0.07586c0.0357,-0.04909 0.05355,-0.11156 0.04909,-0.17403c0,-0.05801 -0.01339,-0.11602 -0.04909,-0.1651c-0.0357,-0.04462 -0.08478,-0.0714 -0.13833,-0.0714z" class="st0"/>
				<path stroke="null" id="svg_7" d="m39.02664,5.15652c-0.16064,0 -0.30344,0.11156 -0.41499,0.33913l-1.01294,1.92324l-1.00401,-1.92324c-0.11602,-0.22758 -0.25881,-0.33913 -0.41499,-0.33913l-0.11156,0c-0.12494,0.02231 -0.20973,0.14279 -0.19188,0.26774l0,4.19901c0,0.06247 0.03124,0.12048 0.08925,0.14726c0.05801,0.0357 0.12494,0.05355 0.19188,0.04909c0.06247,0 0.12494,-0.02231 0.17849,-0.05801c0.05355,-0.02677 0.08478,-0.08032 0.08478,-0.14279l0,-3.37349l0.96832,1.84739c0.02677,0.08925 0.10263,0.15172 0.19634,0.15618c0.09817,-0.00446 0.17849,-0.06693 0.20973,-0.15618l0.96832,-1.81615l0,3.34225c0,0.05801 0.03124,0.11156 0.08032,0.14279c0.11602,0.06693 0.25881,0.06693 0.37929,0c0.05355,-0.02677 0.08478,-0.08032 0.08478,-0.14279l0,-4.20793c0.00446,-0.02231 0.00446,-0.04462 0,-0.06693l0,0c-0.03124,-0.12048 -0.15172,-0.20973 -0.28112,-0.18742z" class="st0"/>
				<path stroke="null" id="svg_8" d="m42.78388,5.16098c-0.18295,0 -0.29005,0.06247 -0.32575,0.18295l-1.31191,4.21686c-0.00446,0.01785 -0.00446,0.03124 0,0.04909c0,0.0714 0.04016,0.13833 0.10263,0.16957c0.06693,0.04016 0.14279,0.06247 0.21865,0.06247c0.08478,0.01339 0.16957,-0.04016 0.19634,-0.12494l0.27666,-0.93262l1.65997,0l0.27666,0.93262c0.02677,0.08032 0.11156,0.13387 0.19634,0.12048c0.08032,0.00446 0.1651,-0.01785 0.23204,-0.06247c0.06247,-0.02677 0.10263,-0.08478 0.10263,-0.15172m0.00446,-0.01785l0,-0.02231l-1.31191,-4.23917c-0.03124,-0.12048 -0.13833,-0.18295 -0.32128,-0.18295l1.6332,4.44443zm-2.34716,-1.27621l0.71397,-2.39178l0.71843,2.39178l-1.43239,0l0,0z" class="st0"/>
				<path stroke="null" id="svg_9" d="m49.00877,5.20114c-0.11602,-0.06693 -0.25881,-0.06693 -0.37929,0c-0.04909,0.02677 -0.08032,0.08032 -0.08478,0.13833l0,3.27978l-1.59304,-3.11914c-0.04016,-0.09817 -0.10263,-0.18742 -0.17849,-0.26327c-0.06247,-0.05355 -0.14279,-0.08032 -0.22758,-0.08032c-0.18295,0 -0.26774,0.06247 -0.26774,0.18742l0,4.28379c-0.00446,0.05801 0.02677,0.11156 0.08032,0.14279c0.11602,0.0714 0.26327,0.0714 0.37929,0c0.04909,-0.02677 0.08032,-0.08478 0.08032,-0.14279l0,-3.253l1.65997,3.21731c0.05355,0.14279 0.18742,0.2365 0.33467,0.24543c0.06693,0 0.13387,-0.01785 0.19188,-0.05355c0.04909,-0.03124 0.08032,-0.08478 0.08032,-0.14279l0,-4.30164c0,-0.05801 -0.02677,-0.10709 -0.07586,-0.13833z" class="st0"/>
				<path stroke="null" id="svg_10" d="m11.7844,3.81784c-0.04016,0.01785 -0.06247,0.06693 -0.04462,0.10709c0,0.00446 0.00446,0.00446 0.00446,0.00892c0.04462,0.08925 0.0357,0.2008 -0.03124,0.27666c-0.03124,0.03124 -0.0357,0.08478 -0.00446,0.11602c0,0 0,0 0.00446,0.00446c0.01785,0.00446 0.04016,0.00446 0.05801,0c0.02231,0 0.04909,-0.01339 0.06247,-0.03124c0.11156,-0.12941 0.13387,-0.31236 0.05355,-0.46408c-0.02231,-0.03124 -0.06693,-0.04016 -0.10263,-0.01785z" class="st1"/>
				<path stroke="null" id="svg_11" d="m8.47784,0.14538c-4.0696,-0.52655 -7.79115,2.35162 -8.31323,6.42123s2.35162,7.79561 6.42123,8.3177s7.79115,-2.35162 8.3177,-6.42123c0.52209,-4.0696 -2.35162,-7.79561 -6.42569,-8.3177c0.00446,0 0.00446,0 0,0zm1.53056,4.63185c-0.13833,0.00446 -0.26774,0.05801 -0.36591,0.15618l-2.75769,2.75769l-0.58902,-0.58902c2.71307,-2.70861 3.20838,-2.73538 3.71262,-2.32485zm-3.01204,3.01204l2.74877,-2.73092c0.15172,-0.14726 0.39268,-0.14726 0.5444,0c0.07586,0.07586 0.11602,0.17849 0.11156,0.28112c-0.00446,0.10709 -0.04909,0.20527 -0.12941,0.27666l-2.90495,2.56135l-0.37037,-0.38822zm0.20527,0.41499l-0.68273,0.17403c-0.01339,0.00892 -0.02677,0.00892 -0.04016,0c-0.00892,-0.01339 -0.00892,-0.03124 0,-0.04462l0.41499,-0.41499l0.3079,0.28559zm-1.74029,-0.28559l0.72735,-0.72735l0.54886,0.56225l-1.24498,0.26774c-0.02677,0.00446 -0.05355,-0.01339 -0.05801,-0.04016c-0.00446,-0.01785 0,-0.03124 0.01339,-0.04462l0.01339,-0.01785zm-2.25345,3.77955c-0.01785,-0.00446 -0.0357,-0.01785 -0.04016,-0.03124c-0.00446,-0.01785 -0.00446,-0.0357 0,-0.04909l0.58456,-0.58902l0.75859,0.75413l-1.30299,-0.08478zm1.49933,-0.7809l0,0c-0.05801,0.03124 -0.08925,0.09371 -0.07586,0.15618l0.12494,0.53547c0.00892,0.0357 -0.00892,0.0714 -0.0357,0.08925c-0.02677,0.02231 -0.06693,0.02231 -0.08925,0l-0.75859,-0.7809l2.32931,-2.33377l1.12896,-0.24096l0.53994,0.53994c-0.96385,0.80321 -2.02588,1.48594 -3.1593,2.02588l0,0.00892l-0.00446,0zm3.27532,-2.12405l-0.51762,-0.51762l2.90495,-2.55689c0.02677,-0.02231 0.05355,-0.04909 0.07586,-0.08032c-0.09371,0.82998 -1.26283,2.00803 -2.46318,3.15483zm2.26684,-4.00267c-0.43284,-0.45069 -0.41499,-1.16466 0.0357,-1.5975c0.41053,-0.39268 1.04417,-0.41945 1.48594,-0.06247l-0.99955,0.99509c-0.02677,0.03124 -0.02677,0.07586 0,0.10709l0.77644,0.77198c-0.4373,0.21419 -0.96385,0.12494 -1.30299,-0.22311l0.00446,0.00892zm1.59304,0c-0.05355,0.04909 -0.10709,0.09817 -0.16957,0.13833l-0.7452,-0.7452l0.95047,-0.95047c0.41053,0.44177 0.39714,1.12896 -0.0357,1.55734z" class="st1"/>
			</g>
		</g>
	</g>
</svg>