<?xml version="1.0" standalone="no"?><!DOCTYPE svg PUBLIC "-//W3C//DTD SVG 1.1//EN"
        "http://www.w3.org/Graphics/SVG/1.1/DTD/svg11.dtd">
<svg class="icon" width="16px" height="16.00px" viewBox="0 0 1024 1024" version="1.1"
     xmlns="http://www.w3.org/2000/svg">
    <path fill="#000000" d="M891.684571 841.142857h-88.064v-59.904h88.064a36.498286 36.498286 0 0 0 36.352-36.571428V645.046857c0-20.114286-16.310857-36.571429-36.352-36.571428H132.388571a36.498286 36.498286 0 0 0-36.352 36.571428v99.766857c0 20.114286 16.310857 36.571429 36.352 36.571429h77.019429v59.830857H132.388571A96.182857 96.182857 0 0 1 36.571429 744.740571V644.973714c0-53.174857 42.934857-96.402286 95.744-96.402285H891.611429c52.809143 0 95.744 43.227429 95.744 96.402285v99.766857c0 53.174857-42.934857 96.402286-95.744 96.402286zM807.862857 602.477714h-591.725714v-402.285714c0-49.956571 43.154286-90.477714 96.402286-90.477714h398.921142c53.174857 0 96.475429 40.521143 96.475429 90.404571v402.285714z m-531.894857-56.173714h472.064V200.118857c0-18.870857-16.384-34.230857-36.571429-34.230857H312.539429c-20.187429 0-36.571429 15.36-36.571429 34.230857V546.377143z m468.772571 367.981714H279.259429c-53.174857 0-96.402286-40.521143-96.402286-90.404571v-62.390857c0-49.883429 43.227429-90.477714 96.402286-90.477715h465.481142c53.174857 0 96.402286 40.594286 96.402286 90.477715v62.390857c0 49.883429-43.227429 90.404571-96.402286 90.404571zM279.259429 727.186286c-20.187429 0-36.571429 15.36-36.571429 34.304v62.390857c0 18.870857 16.384 34.230857 36.571429 34.230857h465.481142c20.187429 0 36.571429-15.36 36.571429-34.230857v-62.390857c0-18.944-16.384-34.377143-36.571429-34.377143H279.259429z"/>
</svg>