<svg width="15" height="15" xmlns="http://www.w3.org/2000/svg">
	<style>tspan { white-space:pre }
		.shp0 { fill: #85ea2d }
		.shp1 { fill: #173647 }</style>

	<g>
		<title>background</title>
		<rect fill="none" id="canvas_background" height="17" width="17" y="-1" x="-1"/>
	</g>
	<g>
		<title>Layer 1</title>
		<g stroke="null" id="SW_TM-logo-on-dark">
			<g stroke="null" id="SW_In-Product">
				<path stroke="null" d="m7.42935,14.51082c-2.86294,0 -5.4436,-1.7249 -6.54004,-4.36944c-1.09496,-2.64454 -0.49028,-5.69022 1.53473,-7.71375c2.02501,-2.02501 5.0692,-2.62969 7.71375,-1.53473c2.64454,1.09645 4.36944,3.6771 4.36944,6.54004c0,0.92856 -0.18274,1.84969 -0.53931,2.70843c-0.35508,0.85873 -0.87656,1.63873 -1.53324,2.29689c-0.65816,0.65668 -1.43816,1.17816 -2.29689,1.53324c-0.85873,0.35657 -1.77987,0.53931 -2.70843,0.53931l0,0z" class="shp0" id="Path_2938"/>
				<path stroke="null" d="m7.42935,0c0.9761,0 1.94181,0.19166 2.84363,0.56605c0.90182,0.37291 1.72192,0.92113 2.41129,1.6105c0.69085,0.69085 1.23759,1.50947 1.61198,2.41129c0.37291,0.90182 0.56457,1.86901 0.56457,2.84511c0,3.00557 -1.80958,5.71548 -4.58784,6.8669c-2.77677,1.14993 -5.97399,0.51405 -8.10003,-1.61198c-2.12603,-2.12603 -2.76191,-5.32177 -1.6105,-8.10003c1.14993,-2.77677 3.85984,-4.58784 6.8669,-4.58784zm0,0.70868c-0.88399,0 -1.75758,0.17383 -2.57323,0.51108c-0.81565,0.33874 -1.55701,0.83348 -2.18249,1.45747c-0.62399,0.62548 -1.11873,1.36684 -1.45747,2.18249c-0.33725,0.81565 -0.51108,1.68924 -0.51108,2.57323c0,2.71883 1.63873,5.17023 4.15104,6.2117c2.51232,1.04147 5.40497,0.46502 7.32746,-1.45747c1.92249,-1.92249 2.49894,-4.81515 1.45747,-7.32746c-1.04147,-2.51232 -3.49288,-4.15104 -6.2117,-4.15104z" class="shp0" fill-rule="evenodd" id="Path_2939"/>
				<path stroke="null" d="m4.67635,5.02909c-0.02229,0.25554 0.00891,0.51851 -0.00891,0.77553c-0.00446,0.06389 -0.0104,0.12777 -0.01634,0.19166c-0.00743,0.06389 -0.01486,0.12926 -0.02377,0.19314c-0.00743,0.06389 -0.01783,0.12628 -0.02823,0.19017c-0.0104,0.06389 -0.02229,0.12777 -0.03417,0.19017c-0.0208,0.08914 -0.05051,0.17383 -0.08617,0.25703c-0.03714,0.0832 -0.0832,0.16194 -0.1352,0.23623c-0.052,0.0728 -0.10994,0.14263 -0.17531,0.20503c-0.06537,0.0624 -0.13668,0.11886 -0.21245,0.16788c0.60616,0.3952 0.67451,1.00582 0.71462,1.62684c0.01931,0.33428 0.01189,0.67154 0.04606,1.00285c0.02526,0.25703 0.1248,0.3224 0.39074,0.33131c0.10846,0.00297 0.21988,0 0.34617,0l0,0.79485c-0.78593,0.13371 -1.43518,-0.08914 -1.59415,-0.75473c-0.01337,-0.06091 -0.02526,-0.12183 -0.03566,-0.18423c-0.01189,-0.06091 -0.0208,-0.12331 -0.02823,-0.18571c-0.00891,-0.06091 -0.01486,-0.12331 -0.0208,-0.18571c-0.00594,-0.0624 -0.0104,-0.1248 -0.01337,-0.1872c-0.01634,-0.26594 0.01189,-0.53188 -0.00891,-0.79782c-0.05646,-0.72799 -0.15154,-0.97462 -0.84833,-1.00879l0,-0.90628c0.01337,-0.00297 0.02526,-0.00446 0.03863,-0.00743c0.01189,-0.00297 0.02526,-0.00446 0.03714,-0.00743c0.01337,-0.00149 0.02526,-0.00446 0.03863,-0.00594c0.01337,-0.00149 0.02526,-0.00297 0.03863,-0.00446c0.38331,-0.01931 0.54525,-0.13668 0.62845,-0.51405c0.0104,-0.05349 0.01931,-0.10697 0.02674,-0.16046c0.00743,-0.05349 0.01486,-0.10697 0.0208,-0.16046c0.00594,-0.05349 0.0104,-0.10697 0.01486,-0.16046c0.00446,-0.05497 0.00743,-0.10846 0.00891,-0.16194c0.00149,-0.104 0.00594,-0.20948 0.0104,-0.31348c0.00446,-0.104 0.0104,-0.208 0.01783,-0.312c0.00743,-0.104 0.01634,-0.208 0.02674,-0.312c0.0104,-0.104 0.02229,-0.208 0.03417,-0.312c0.09954,-0.59131 0.46651,-0.87656 1.07565,-0.91222c0.17086,-0.00743 0.34468,0 0.54228,0l0,0.81268c-0.0832,0.00594 -0.15451,0.01634 -0.2288,0.01634c-0.49474,-0.01634 -0.52148,0.15154 -0.55862,0.56308zm0.95233,1.88089c0.06834,0.00149 0.13668,0.01634 0.19908,0.04309c0.0624,0.02823 0.12034,0.06686 0.16788,0.11737c0.04754,0.04903 0.08468,0.10697 0.10994,0.17086c0.02526,0.06389 0.03863,0.13223 0.03714,0.20057l0,0.02823c-0.00446,0.06834 -0.0208,0.13371 -0.05051,0.19463c-0.02971,0.06091 -0.07131,0.1144 -0.12183,0.15897c-0.05051,0.04606 -0.10846,0.08023 -0.17234,0.10251c-0.06389,0.02229 -0.13074,0.0312 -0.19908,0.02674l-0.03417,0c-0.13966,-0.00446 -0.2704,-0.06537 -0.36548,-0.16788c-0.0936,-0.104 -0.14263,-0.2392 -0.13668,-0.37885c0.00743,-0.13966 0.06983,-0.2704 0.17383,-0.364c0.104,-0.09211 0.24068,-0.14114 0.38034,-0.13223l0.01189,0zm1.79175,0c0.06983,-0.00446 0.13966,0.00446 0.20503,0.02823c0.06537,0.02377 0.1248,0.06091 0.17531,0.10994c0.05051,0.04903 0.08914,0.10697 0.1144,0.17234c0.02526,0.06537 0.03714,0.1352 0.03417,0.20354c0.00594,0.06983 -0.00297,0.14114 -0.02674,0.20651c-0.02229,0.06537 -0.05943,0.12628 -0.10846,0.17531c-0.04903,0.05051 -0.10697,0.09063 -0.17234,0.11588c-0.06537,0.02526 -0.1352,0.03566 -0.20503,0.0312c-0.06983,0.00594 -0.13966,-0.00297 -0.20503,-0.02526c-0.06537,-0.02377 -0.12628,-0.06091 -0.1768,-0.10994c-0.05051,-0.04754 -0.08914,-0.10697 -0.1144,-0.17086c-0.02674,-0.06537 -0.03863,-0.1352 -0.03417,-0.20503c-0.00149,-0.00446 -0.00149,-0.00743 -0.00297,-0.01189c0,-0.00446 0,-0.00891 0,-0.01189c0,-0.00446 -0.00149,-0.00891 -0.00149,-0.01189c0,-0.00446 0,-0.00891 0,-0.01337c0.00297,-0.06537 0.01783,-0.12926 0.04606,-0.19017c0.02674,-0.05943 0.06537,-0.11291 0.11291,-0.15748c0.04903,-0.04457 0.10548,-0.08023 0.1664,-0.10251c0.06091,-0.02377 0.12777,-0.03417 0.19314,-0.03269l0,0zm1.83484,0c0,0 0,0 0,0c-0.00149,0 -0.00149,0 -0.00149,0l0.00149,0zm0,0c0.06983,0 0.13817,0.01337 0.20205,0.03863c0.06537,0.02674 0.1248,0.06537 0.17383,0.1144c0.05051,0.04903 0.08914,0.10846 0.11588,0.17234c0.02823,0.06537 0.0416,0.13371 0.0416,0.20354c-0.01634,0.30605 -0.28228,0.56011 -0.54525,0.51405l-0.00594,0c-0.06983,0 -0.13817,-0.01337 -0.20205,-0.03863c-0.06389,-0.02674 -0.12183,-0.06537 -0.16937,-0.1144c-0.04903,-0.04903 -0.08766,-0.10697 -0.1144,-0.17086c-0.02674,-0.06389 -0.04011,-0.13223 -0.04011,-0.20205c0.00297,-0.06834 0.01783,-0.13668 0.04606,-0.20057c0.02823,-0.06389 0.06983,-0.12034 0.12034,-0.16937c0.04903,-0.04754 0.10846,-0.08468 0.17383,-0.10994c0.06389,-0.02526 0.13371,-0.03863 0.20354,-0.03714zm2.51677,0.04309c0.05497,0.00297 0.10548,0.01189 0.17977,0.0208l0,0.90628c-0.0104,0.00297 -0.01931,0.00594 -0.02971,0.00891c-0.0104,0.00297 -0.0208,0.00594 -0.0312,0.00743c-0.0104,0.00297 -0.0208,0.00594 -0.0312,0.00743c-0.0104,0.00149 -0.0208,0.00297 -0.0312,0.00446c-0.44274,0.02823 -0.64479,0.21097 -0.68788,0.65371c-0.02971,0.28228 -0.02674,0.57199 -0.04606,0.85725c-0.00149,0.07874 -0.00594,0.156 -0.0104,0.23325c-0.00446,0.07874 -0.0104,0.156 -0.01783,0.23474c-0.00594,0.07726 -0.01486,0.15451 -0.02377,0.23177c-0.0104,0.07874 -0.0208,0.156 -0.03269,0.23177c-0.1144,0.56011 -0.46354,0.84091 -1.03999,0.87508c-0.18571,0.01189 -0.37142,0 -0.57497,0l0,-0.80822c0.10846,-0.00594 0.20354,-0.01486 0.30011,-0.01783c0.34617,-0.00891 0.46651,-0.12034 0.48285,-0.46205c0.0208,-0.37885 0.02823,-0.75473 0.04309,-1.12913c0.02526,-0.54674 0.17531,-1.03256 0.68045,-1.37279c-0.0728,-0.04309 -0.13966,-0.09508 -0.20205,-0.15154c-0.0624,-0.05646 -0.11737,-0.12034 -0.16788,-0.1872c-0.05051,-0.06834 -0.0936,-0.14114 -0.12926,-0.2184c-0.03566,-0.07577 -0.06389,-0.156 -0.0832,-0.23771c-0.07131,-0.40857 -0.0936,-0.82902 -0.13371,-1.24353c-0.0208,-0.208 -0.0208,-0.416 -0.04011,-0.62251c-0.0208,-0.22583 -0.17531,-0.30308 -0.37737,-0.30605c-0.11737,-0.00297 -0.23474,-0.00297 -0.38628,-0.00297l0,-0.78891c0.95382,-0.156 1.61198,0.16046 1.67141,1.0697c0.02674,0.38331 0.02377,0.76811 0.04606,1.15142c0.00297,0.052 0.00743,0.104 0.01189,0.156c0.00594,0.05051 0.01189,0.10251 0.0208,0.15451c0.00743,0.05051 0.01634,0.10103 0.02674,0.15303c0.0104,0.05051 0.02229,0.10103 0.03566,0.15154c0.08171,0.31348 0.24663,0.42491 0.57942,0.43977l-0.00149,0z" class="shp1" fill-rule="evenodd" id="Path_2940"/>
			</g>
		</g>
	</g>
</svg>