<svg class="bi bi-arrow-up-down" width="1em" height="1em" viewBox="0 0 16 16" fill="currentColor" xmlns="http://www.w3.org/2000/svg">
  <path fill-rule="evenodd" d="m2.78123,9.646a0.5,0.5 0 0 1 0.708,0l2.646,2.647l0.354,1.061a0.5,0.5 0 0 1 -0.708,0l-3,-3a0.5,0.5 0 0 1 0,-0.708z" clip-rule="evenodd" id="svg_2"/>
  <path fill="black" fill-rule="evenodd" d="m6.13523,3.46875a0.5,0.5 0 0 1 0.5,0.5l0,9a0.5,0.5 0 0 1 -1,0l0,-9a0.5,0.5 0 0 1 0.5,-0.5z" clip-rule="evenodd" id="svg_3"/>
  <path fill="black" fill-rule="evenodd" d="m9.78984,2.5a0.5,0.5 0 0 1 0.5,0.5l0,9a0.5,0.5 0 0 1 -1,0l0,-9a0.5,0.5 0 0 1 0.5,-0.5z" clip-rule="evenodd" id="svg_4"/>
  <path fill="black" fill-rule="evenodd" d="m9.43584,2.646a0.5,0.5 0 0 1 0.708,0l3,3a0.5,0.5 0 0 1 -0.708,0.708l-2.646,-2.647l-0.354,-1.061z" clip-rule="evenodd" id="svg_5"/>
</svg>