<svg width="20" height="15" xmlns="http://www.w3.org/2000/svg" class="icon">

    <g>
        <title>background</title>
        <rect fill="none" id="canvas_background" height="17" width="22" y="-1" x="-1"/>
    </g>
    <g>
        <title>Layer 1</title>
        <path stroke="null" id="svg_1" d="m0.78235,5.00918c0.49708,0 0.99415,-0.00527 1.49057,0l0.03489,0.02502l1.81779,1.81581c0.58662,-0.59649 1.18508,-1.18113 1.77763,-1.77763c0.03489,-0.03424 0.07242,-0.0744 0.12641,-0.06584l1.20023,0a0.92173,0.92173 0 0 1 0.23241,0.01251c-0.46087,0.44111 -0.90659,0.90132 -1.36219,1.34968l-2.98378,2.9739c-0.21792,0.21332 -0.42663,0.43651 -0.65114,0.64192c-0.49642,0.01448 -0.99481,0.00461 -1.49189,0.00461c0.8052,-0.79598 1.60052,-1.60184 2.40835,-2.39453c-0.86972,-0.85853 -1.73154,-1.72496 -2.59929,-2.58546zm7.04467,0l1.21076,0l0,4.9813c-0.40227,0 -0.80454,0.0079 -1.20615,-0.00527l0,-3.28795c-1.05341,1.05802 -2.11274,2.10682 -3.16747,3.16022c-0.0586,0.05267 -0.10929,0.14287 -0.20081,0.12773c-0.54251,-0.00395 -1.08567,0 -1.62883,0q2.50119,-2.48604 4.9925,-4.97604zm1.48662,0.00132c0.30944,-0.00593 0.61822,0 0.92766,0c0.55041,0.5616 1.11266,1.112 1.66965,1.66702q0.83483,-0.83417 1.67163,-1.66702l0.92173,0q-0.00527,2.49131 0,4.98196c-0.3101,0 -0.62085,0.00395 -0.93095,0q0.00527,-1.57155 0,-3.14245c-0.55567,0.55501 -1.10345,1.11925 -1.66307,1.66965c-0.56357,-0.54975 -1.11069,-1.11595 -1.66702,-1.67294c0,1.04946 -0.00395,2.09892 0.00395,3.14772c-0.31076,0 -0.62085,0.00329 -0.93161,0q-0.00198,-2.49526 -0.00198,-4.98394zm5.46521,-0.00198c0.31076,0 0.62151,-0.00461 0.93227,0q-0.00461,2.02979 0,4.05957l2.48999,0c0.04148,0.00395 0.09481,-0.0079 0.12575,0.02963c0.29495,0.2989 0.59715,0.59254 0.89079,0.89145q-2.2194,0.00461 -4.43814,0q0.00461,-2.48999 -0.00066,-4.98065z" fill="#7fff00"/>
    </g>
</svg>